<?xml version="1.0" encoding="UTF-8"?>
<!-- Generator: visioncortex VTracer 0.6.12 -->
<svg version="1.1" xmlns="http://www.w3.org/2000/svg" width="585" height="203">
<path d="M0 0 C86.79 0 173.58 0 263 0 C263 32.01 263 64.02 263 97 C176.21 97 89.42 97 0 97 C0 64.99 0 32.98 0 0 Z " fill="#41A847" transform="translate(163,97)"/>
<path d="M0 0 C0.806 -0.007 1.612 -0.013 2.443 -0.02 C4.138 -0.03 5.833 -0.035 7.528 -0.035 C10.089 -0.039 12.648 -0.075 15.209 -0.113 C25.261 -0.181 33.171 0.775 42.293 5.336 C42.293 4.016 42.293 2.696 42.293 1.336 C47.434 1.261 52.575 1.207 57.717 1.171 C59.463 1.156 61.21 1.136 62.957 1.11 C65.476 1.073 67.996 1.056 70.516 1.043 C71.289 1.027 72.062 1.012 72.859 0.996 C79.399 0.994 83.998 2.398 89.105 6.711 C93.249 11.684 93.763 16.266 93.586 22.57 C92.564 32.221 85.304 37.437 78.293 43.336 C83.262 50.18 88.883 56.209 94.891 62.14 C96.362 63.593 97.825 65.053 99.287 66.516 C103.799 71.009 108.36 75.31 113.293 79.336 C113.293 79.666 113.293 79.996 113.293 80.336 C108.752 80.452 104.21 80.523 99.668 80.586 C98.383 80.619 97.098 80.653 95.773 80.688 C84.005 80.809 84.005 80.809 79.293 76.336 C78.687 75.792 78.081 75.248 77.457 74.688 C73.732 70.509 71.036 66.141 68.418 61.211 C64.034 53.057 58.759 49.598 50.293 46.336 C50.293 45.676 50.293 45.016 50.293 44.336 C52.839 42.46 55.57 40.953 58.293 39.336 C53.013 39.006 47.733 38.676 42.293 38.336 C42.128 34.211 42.128 34.211 41.293 13.336 C39.684 14.656 38.075 15.976 36.418 17.336 C31.543 21.336 31.543 21.336 29.293 21.336 C28.922 20.449 28.55 19.562 28.168 18.648 C25.541 14.007 22.385 11.358 17.605 9.023 C7.752 6.978 -1.07 8.374 -9.742 13.551 C-15.717 18.081 -20.459 25.918 -21.707 33.336 C-22.327 42.062 -22.492 49.74 -17.707 57.336 C-17.295 58.032 -16.882 58.728 -16.457 59.445 C-11.993 66.191 -5.779 69.613 1.543 72.711 C19.083 75.634 34.167 69.655 50.169 63.246 C51.163 62.857 52.156 62.468 53.18 62.066 C54.069 61.71 54.958 61.353 55.874 60.985 C58.529 60.273 59.772 60.294 62.293 61.336 C65.274 64.593 67.581 68.224 69.918 71.961 C71.683 74.774 73.451 77.572 75.293 80.336 C63.453 80.429 51.613 80.5 39.773 80.543 C34.275 80.564 28.777 80.592 23.279 80.638 C17.968 80.681 12.658 80.705 7.348 80.715 C5.326 80.723 3.304 80.737 1.283 80.759 C-1.559 80.788 -4.399 80.792 -7.24 80.79 C-8.068 80.804 -8.896 80.819 -9.749 80.834 C-18.293 80.774 -26.46 77.208 -32.707 71.336 C-40.596 61.949 -44.085 50.516 -43.707 38.336 C-41.878 26.012 -36.924 16.738 -27.707 8.336 C-19.043 2.355 -10.391 0.031 0 0 Z M58.293 15.336 C56.436 19.049 57.502 23.374 58.293 27.336 C59.415 29.921 60.708 31.985 62.293 34.336 C65.444 32.969 67.302 31.479 69.48 28.836 C69.99 28.227 70.499 27.619 71.023 26.992 C73.398 23.894 73.69 21.283 73.641 17.379 C73.037 13.829 71.128 12.352 68.293 10.336 C63.344 9.099 61.396 11.716 58.293 15.336 Z " fill="#49AB4F" transform="translate(206.70703125,10.6640625)"/>
<path d="M0 0 C7.407 -0.07 14.813 -0.123 22.22 -0.155 C25.661 -0.171 29.101 -0.192 32.541 -0.226 C36.505 -0.265 40.469 -0.28 44.434 -0.293 C45.656 -0.308 46.878 -0.324 48.137 -0.34 C55.951 -0.341 63.307 -0.075 69.523 5.102 C71.625 9.226 71.66 12.804 71.625 17.375 C71.657 18.2 71.689 19.025 71.723 19.875 C71.732 25.544 70.504 28.516 66.583 32.612 C65 34 65 34 62 36 C63.14 39.419 64.044 40.025 66.812 42.188 C71.502 46.204 74.337 50.061 75.375 56.227 C75.687 61.91 74.353 66.404 71 71 C66.371 75.91 61.909 79.69 54.969 80.241 C53.843 80.236 52.717 80.232 51.557 80.227 C50.276 80.227 48.995 80.227 47.676 80.227 C46.288 80.216 44.9 80.206 43.512 80.195 C42.084 80.192 40.656 80.189 39.228 80.187 C35.482 80.179 31.735 80.159 27.989 80.137 C24.161 80.117 20.333 80.108 16.506 80.098 C9.004 80.076 1.502 80.042 -6 80 C-5.044 78.883 -4.087 77.766 -3.131 76.649 C-2.598 76.027 -2.065 75.405 -1.517 74.764 C-0.323 73.375 0.882 71.997 2.09 70.621 C11.241 59.806 17.584 47.258 17.246 32.859 C16.304 21.918 12.022 12.193 3.625 5 C2.937 4.464 2.248 3.928 1.539 3.375 C1.031 2.921 0.523 2.467 0 2 C0 1.34 0 0.68 0 0 Z M33.309 8.605 C29.706 12.342 30.124 15.796 29.922 20.789 C30.04 25.631 30.45 29.45 34 33 C38.554 33.783 42.169 33.407 46.312 31.375 C50.381 27.78 52.689 24.936 53.562 19.5 C52.872 15.202 51.363 12.661 48 10 C43.141 7.441 38.365 5.589 33.309 8.605 Z M33.376 44.208 C31.568 46.563 31.653 47.941 31.707 50.887 C31.717 51.825 31.726 52.762 31.736 53.729 C31.761 54.705 31.787 55.681 31.812 56.688 C31.826 57.676 31.84 58.664 31.854 59.682 C31.889 62.122 31.938 64.561 32 67 C36.712 69.496 40.728 69.55 46 69 C49.711 67.583 52.477 66.071 55 63 C55.954 58.486 55.391 54.798 53.375 50.688 C48.521 45.195 44.378 43.56 37.27 42.785 C35 43 35 43 33.376 44.208 Z " fill="#49AB4F" transform="translate(351,11)"/>
<path d="M0 0 C5.513 -0.05 11.027 -0.086 16.541 -0.11 C18.412 -0.12 20.284 -0.133 22.156 -0.151 C24.862 -0.175 27.567 -0.187 30.273 -0.195 C31.097 -0.206 31.92 -0.216 32.768 -0.227 C42.616 -0.228 50.725 0.976 58 8 C66.01 16.307 68.66 26.735 68.541 38.065 C67.899 51.782 58.784 65.703 49 75 C45.213 78.097 41.724 80.578 36.938 81.75 C31.361 80.326 27.249 76.795 24 72.125 C23.67 71.424 23.34 70.722 23 70 C23.629 69.853 24.258 69.706 24.906 69.555 C32.59 67.541 38.482 65.049 42.793 58.117 C48.56 46.966 49.847 35.207 46.75 22.938 C44.899 17.171 43.067 13.209 37.688 10.062 C33.501 8.856 31.148 8.644 27 10 C23.646 14.969 23.599 19.3 23.75 25.062 C23.755 25.852 23.76 26.642 23.766 27.455 C23.82 31.537 24.187 34.933 25 39 C18.73 39 12.46 39 6 39 C7 34 7 34 8.562 30.438 C10.781 24.64 11.286 17.865 9.309 11.922 C7.586 8.721 5.216 6.037 2.852 3.301 C2.316 2.68 1.781 2.059 1.229 1.419 C0.823 0.951 0.418 0.483 0 0 Z " fill="#4BAC51" transform="translate(294,10)"/>
<path d="M0 0 C2.454 -0.031 2.454 -0.031 14.875 -0.188 C16.402 -0.215 17.93 -0.242 19.503 -0.27 C28.424 -0.324 36.479 0.016 44.125 5.062 C46.841 9.318 47.026 13.088 46 18 C43.565 21.158 41.3 22.8 38 25 C38.554 25.326 39.109 25.652 39.68 25.988 C40.404 26.425 41.129 26.862 41.875 27.312 C42.594 27.742 43.314 28.171 44.055 28.613 C46.52 30.371 47.825 32.035 48.371 35.051 C48.499 39.411 48.274 41.552 45.938 45.375 C40.144 50.553 34.922 51.448 27.441 51.293 C26.741 51.29 26.04 51.287 25.318 51.284 C22.733 51.268 20.148 51.226 17.562 51.188 C11.767 51.126 5.971 51.064 0 51 C0 34.17 0 17.34 0 0 Z " fill="#FAFCFB" transform="translate(175,122)"/>
<path d="M0 0 C7.26 0 14.52 0 22 0 C28.143 11.603 34.172 23.236 40 35 C40.33 23.45 40.66 11.9 41 0 C45.62 0 50.24 0 55 0 C55 16.83 55 33.66 55 51 C47.74 51 40.48 51 33 51 C31.31 47.647 29.623 44.293 27.938 40.938 C27.472 40.014 27.006 39.09 26.525 38.139 C22.52 30.156 18.782 22.104 15 14 C14.67 26.21 14.34 38.42 14 51 C9.38 51 4.76 51 0 51 C0 34.17 0 17.34 0 0 Z " fill="#FCFDFC" transform="translate(296,122)"/>
<path d="M0 0 C15.629 -0.023 31.258 -0.041 46.886 -0.052 C54.143 -0.057 61.399 -0.064 68.655 -0.075 C74.977 -0.085 81.3 -0.092 87.622 -0.094 C90.972 -0.095 94.321 -0.098 97.671 -0.106 C101.404 -0.113 105.137 -0.114 108.871 -0.114 C109.989 -0.117 111.108 -0.121 112.26 -0.124 C113.271 -0.123 114.282 -0.122 115.324 -0.12 C115.766 -0.121 115.766 -0.121 118.003 -0.123 C120 0 120 0 121 1 C121 5.95 121 10.9 121 16 C81.07 16 41.14 16 0 16 C0 10.72 0 5.44 0 0 Z " fill="#4EAD55" transform="translate(455,178)"/>
<path d="M0 0 C1.001 -0.003 2.002 -0.006 3.034 -0.009 C4.142 -0.007 5.249 -0.004 6.39 -0.002 C7.549 -0.004 8.709 -0.006 9.903 -0.008 C13.756 -0.012 17.609 -0.009 21.463 -0.006 C24.127 -0.007 26.791 -0.007 29.455 -0.009 C35.047 -0.011 40.639 -0.008 46.232 -0.003 C52.705 0.002 59.179 0 65.653 -0.005 C71.202 -0.01 76.751 -0.01 82.3 -0.008 C85.619 -0.006 88.937 -0.006 92.255 -0.009 C95.953 -0.012 99.65 -0.008 103.347 -0.002 C104.455 -0.004 105.562 -0.006 106.704 -0.009 C107.204 -0.007 107.204 -0.007 109.738 0 C110.613 0 111.488 0.001 112.39 0.001 C114.369 0.127 114.369 0.127 115.369 1.127 C115.369 6.077 115.369 11.027 115.369 16.127 C75.439 16.127 35.509 16.127 -5.631 16.127 C-5.631 0.002 -5.631 0.002 0 0 Z " fill="#4FAE56" transform="translate(15.6312255859375,177.87301635742188)"/>
<path d="M0 0 C15.629 -0.023 31.258 -0.041 46.886 -0.052 C54.143 -0.057 61.399 -0.064 68.655 -0.075 C74.977 -0.085 81.3 -0.092 87.622 -0.094 C90.972 -0.095 94.321 -0.098 97.671 -0.106 C101.404 -0.113 105.137 -0.114 108.871 -0.114 C109.989 -0.117 111.108 -0.121 112.26 -0.124 C113.271 -0.123 114.282 -0.122 115.324 -0.12 C115.766 -0.121 115.766 -0.121 118.003 -0.123 C120 0 120 0 121 1 C121.099 3.332 121.13 5.666 121.125 8 C121.126 8.639 121.126 8.639 121.133 11.875 C121 15 121 15 120 16 C118.444 16.096 116.883 16.122 115.324 16.12 C114.313 16.122 113.302 16.123 112.26 16.124 C111.701 16.123 111.701 16.123 108.871 16.114 C107.7 16.114 106.53 16.114 105.324 16.114 C102.105 16.113 98.886 16.108 95.667 16.101 C92.307 16.095 88.946 16.095 85.585 16.093 C79.218 16.09 72.85 16.082 66.482 16.072 C59.234 16.061 51.987 16.055 44.739 16.05 C29.826 16.04 14.913 16.022 0 16 C0 10.72 0 5.44 0 0 Z " fill="#4EAD55" transform="translate(455,150)"/>
<path d="M0 0 C39.93 0 79.86 0 121 0 C121 4.95 121 9.9 121 15 C119.38 16.62 117.608 16.126 115.369 16.127 C114.868 16.128 114.868 16.128 112.335 16.136 C111.227 16.134 110.12 16.131 108.979 16.129 C107.819 16.131 106.66 16.133 105.466 16.135 C101.613 16.139 97.759 16.136 93.906 16.133 C91.242 16.133 88.578 16.134 85.914 16.136 C80.322 16.138 74.729 16.135 69.137 16.13 C62.663 16.125 56.189 16.127 49.715 16.132 C44.166 16.137 38.617 16.137 33.068 16.135 C29.75 16.133 26.432 16.133 23.113 16.136 C19.416 16.139 15.719 16.135 12.021 16.129 C10.914 16.131 9.806 16.133 8.665 16.136 C7.664 16.133 6.663 16.13 5.631 16.127 C4.756 16.127 3.881 16.126 2.979 16.126 C1 16 1 16 0 15 C0 10.05 0 5.1 0 0 Z " fill="#4FAE56" transform="translate(10,150)"/>
<path d="M0 0 C0.791 0.005 1.582 0.01 2.396 0.016 C2.823 0.017 2.823 0.017 4.984 0.026 C5.882 0.034 6.78 0.042 7.705 0.051 C8.607 0.056 9.508 0.06 10.437 0.065 C12.672 0.077 14.907 0.093 17.142 0.114 C22.016 9.462 26.264 19.038 30.431 28.717 C31.531 31.271 32.639 33.821 33.748 36.371 C34.45 37.996 35.152 39.621 35.853 41.246 C36.184 42.008 36.516 42.769 36.857 43.553 C39.142 48.884 39.142 48.884 39.142 51.114 C33.202 51.114 27.262 51.114 21.142 51.114 C20.152 48.144 19.162 45.174 18.142 42.114 C10.552 41.784 2.962 41.454 -4.858 41.114 C-5.848 44.414 -6.838 47.714 -7.858 51.114 C-13.138 51.114 -18.418 51.114 -23.858 51.114 C-20.094 41.067 -15.971 31.218 -11.699 21.38 C-10.592 18.828 -9.49 16.273 -8.389 13.719 C-7.686 12.095 -6.983 10.471 -6.28 8.848 C-5.95 8.085 -5.621 7.321 -5.282 6.535 C-2.505 0.153 -2.505 0.153 0 0 Z " fill="#FAFCFB" transform="translate(250.857666015625,121.886474609375)"/>
<path d="M0 0 C39.93 0 79.86 0 121 0 C121 4.95 121 9.9 121 15 C81.07 15 41.14 15 0 15 C0 10.05 0 5.1 0 0 Z " fill="#43A84A" transform="translate(455,122)"/>
<path d="M0 0 C39.93 0 79.86 0 121 0 C121 4.95 121 9.9 121 15 C81.07 15 41.14 15 0 15 C0 10.05 0 5.1 0 0 Z " fill="#44A94B" transform="translate(10,122)"/>
<path d="M0 0 C5.28 0 10.56 0 16 0 C16.33 6.93 16.66 13.86 17 21 C22.687 13.875 22.687 13.875 24.448 11.667 C25.457 10.405 26.475 9.15 27.499 7.9 C29 6 29 6 30.183 4.182 C31.816 1.795 33.197 0.18 36.075 -0.464 C38.517 -0.591 40.873 -0.525 43.312 -0.375 C44.148 -0.348 44.984 -0.321 45.846 -0.293 C47.898 -0.223 49.949 -0.115 52 0 C49.447 3.988 46.808 7.467 43.562 10.938 C39.991 14.758 36.981 18.715 34 23 C36.04 25.834 38.083 28.667 40.125 31.5 C40.695 32.291 41.265 33.083 41.852 33.898 C42.419 34.685 42.986 35.471 43.57 36.281 C44.137 37.066 44.703 37.851 45.286 38.66 C47.448 41.611 49.678 44.506 51.929 47.389 C53 49 53 49 53 51 C46.624 52.359 40.214 53.491 34 51 C28.037 45.621 24.13 38.338 20.302 31.36 C19 29 19 29 17 26 C16.67 34.58 16.34 43.16 16 52 C10.72 52 5.44 52 0 52 C0 34.84 0 17.68 0 0 Z " fill="#F9FCF9" transform="translate(362,122)"/>
<path d="M0 0 C3.512 2.709 4.415 6.5 5.688 10.562 C5.912 11.248 6.137 11.933 6.369 12.639 C8 17.69 8 17.69 8 20 C3.38 20 -1.24 20 -6 20 C-5.501 12.848 -2.684 6.587 0 0 Z " fill="#46AA4D" transform="translate(257,133)"/>
<path d="M0 0 C1.915 -0.108 3.833 -0.186 5.75 -0.25 C6.817 -0.296 7.885 -0.343 8.984 -0.391 C12 0 12 0 14.398 1.852 C16 4 16 4 15.875 6.625 C15 9 15 9 13 11 C9.961 11.195 9.961 11.195 6.375 11.125 C5.186 11.107 3.998 11.089 2.773 11.07 C1.858 11.047 0.943 11.024 0 11 C0 7.37 0 3.74 0 0 Z " fill="#44A94B" transform="translate(191,152)"/>
<path d="M0 0 C1.749 -0.081 3.5 -0.139 5.25 -0.188 C6.225 -0.222 7.199 -0.257 8.203 -0.293 C11.375 0.039 12.67 0.887 15 3 C14.25 7.75 14.25 7.75 12 10 C9.18 10.195 9.18 10.195 5.875 10.125 C4.779 10.107 3.684 10.089 2.555 10.07 C1.712 10.047 0.869 10.024 0 10 C0 6.7 0 3.4 0 0 Z " fill="#41A848" transform="translate(191,132)"/>
</svg>
