<?xml version="1.0" encoding="UTF-8"?>
<!-- Generator: visioncortex VTracer 0.6.12 -->
<svg version="1.1" xmlns="http://www.w3.org/2000/svg" width="736" height="736">
<path d="M0 0 C242.88 0 485.76 0 736 0 C736 242.88 736 485.76 736 736 C493.12 736 250.24 736 0 736 C0 493.12 0 250.24 0 0 Z " fill="#EC1B24" transform="translate(0,0)"/>
<path d="M0 0 C12.05 10.28 19.87 24.03 21.41 39.97 C23.44 72.51 9.24 101.92 -11.9 126.03 C-15.79 130.25 -19.74 134.28 -24.15 137.97 C-26.26 139.74 -27.82 141.27 -29.52 143.47 C-31.87 146.31 -34.39 148.19 -37.36 150.33 C-39.58 151.96 -41.66 153.7 -43.77 155.47 C-64.34 171.91 -92.81 192.58 -120.59 189.97 C-127.79 188.26 -132.57 185.19 -136.59 178.97 C-140.84 171.88 -140.64 163.87 -138.93 155.92 C-134.19 140.5 -125.22 124.82 -110.69 116.94 C-103.94 113.96 -96.22 113.87 -89.21 116.09 C-85.05 117.93 -82.92 120.05 -80.59 123.97 C-80.22 130.49 -83.76 135.01 -87.59 139.97 C-91.8 144.5 -96.31 148.72 -100.8 152.98 C-108.01 159.98 -115.63 167.51 -116.59 177.97 C-115.59 179.84 -115.59 179.84 -113.59 180.97 C-100.82 183.14 -84.57 171.26 -74.5 164.14 C-70.45 161.19 -66.5 158.11 -62.59 154.97 C-62 154.5 -61.41 154.02 -60.8 153.54 C-38.04 135.1 -14.07 112.23 -9.92 81.76 C-9.09 72.39 -9.72 63.22 -14.59 54.97 C-18.21 50.74 -22.77 48.32 -28.28 47.63 C-59.37 47.21 -92.11 75.88 -115.52 93.34 C-147.02 116.77 -147.02 116.77 -163.59 115.97 C-172.26 114.62 -179.16 110.46 -184.46 103.47 C-189.1 96.28 -189.6 88.83 -188.16 80.49 C-181.62 55.73 -159.08 34.05 -138.59 19.97 C-137.96 19.53 -137.33 19.1 -136.68 18.65 C-99.01 -7.17 -41.22 -32.38 0 0 Z " fill="#FEFBFB" transform="translate(451.5859375,162.03125)"/>
<path d="M0 0 C5.45 5.45 7.78 11.09 7.86 18.74 C7.87 19.25 7.87 19.25 7.9 21.79 C7.91 22.87 7.92 23.95 7.93 25.06 C7.93 26.17 7.94 27.29 7.95 28.44 C7.96 30.79 7.97 33.15 7.98 35.5 C8 39.11 8.04 42.71 8.09 46.31 C8.1 48.6 8.11 50.89 8.11 53.18 C8.13 54.26 8.15 55.34 8.17 56.45 C8.14 63.93 8.14 63.93 5.8 67.8 C-3.31 75.92 -16.21 79.42 -28.3 78.91 C-38.56 77.77 -46.02 73.96 -52.61 65.96 C-58.02 58.73 -58.21 51.46 -57.31 42.69 C-55.64 36.49 -51.4 31.48 -46.31 27.69 C-38.03 23.42 -30.02 22.52 -20.84 22.08 C-15.42 21.79 -15.42 21.79 -14.31 20.69 C-13.8 16.93 -14.07 15.11 -16 11.81 C-21.23 8.46 -26.28 8.9 -32.31 9.69 C-35.32 10.62 -38.12 11.69 -40.97 13.01 C-43.31 13.69 -43.31 13.69 -45.51 12.95 C-48.73 10.7 -49.98 7.9 -51 4.19 C-50.17 1.18 -49.47 0.77 -46.94 -0.94 C-32.52 -9.02 -13.59 -10.29 0 0 Z " fill="#FDF6F5" transform="translate(262.3125,428.3125)"/>
<path d="M0 0 C7.49 5.69 11.08 15.55 12.56 24.56 C13.02 28.9 13.47 33.41 12.93 37.75 C9.82 40.87 5.99 40.09 1.8 40.13 C1.35 40.14 1.35 40.14 -0.94 40.18 C-3.83 40.23 -6.73 40.27 -9.63 40.31 C-12.53 40.36 -15.43 40.4 -18.33 40.46 C-20.14 40.49 -21.95 40.51 -23.75 40.54 C-29.95 40.64 -29.95 40.64 -31.07 41.75 C-31.13 48.41 -29.84 54.22 -26.07 59.75 C-21.82 63.74 -17.51 64.08 -11.9 64.05 C-7.84 63.62 -4.36 62.27 -0.61 60.72 C1.9 59.76 4.29 59.2 6.93 58.75 C10.58 62.63 11.52 65.46 11.93 70.75 C0.66 78.52 -12.09 81.63 -25.75 79.29 C-34.49 76.97 -41.62 72.44 -46.79 64.96 C-53.98 52.52 -54.86 37.87 -52.38 23.9 C-49.58 14.15 -44.97 4.23 -36.07 -1.25 C-24.07 -7.32 -11.54 -6.98 0 0 Z " fill="#FDF7F6" transform="translate(472.06640625,427.25)"/>
<path d="M0 0 C242.88 0 485.76 0 736 0 C736 242.88 736 485.76 736 736 C493.12 736 250.24 736 0 736 C0 493.12 0 250.24 0 0 Z M1 3 C0.75 5.17 0.75 5.17 0.75 7.93 C0.74 8.98 0.74 10.03 0.73 11.11 C0.74 12.28 0.74 13.44 0.75 14.64 C0.75 15.88 0.74 17.11 0.74 18.38 C0.73 21.83 0.74 25.29 0.74 28.74 C0.75 32.48 0.74 36.23 0.74 39.97 C0.73 46.55 0.73 53.12 0.73 59.7 C0.74 69.47 0.74 79.25 0.73 89.02 C0.72 106.47 0.72 123.93 0.73 141.38 C0.73 156.66 0.73 171.93 0.73 187.2 C0.73 188.22 0.73 189.23 0.73 190.27 C0.73 194.38 0.73 198.48 0.73 202.59 C0.72 241.14 0.73 279.69 0.74 318.23 C0.75 352.51 0.75 386.79 0.74 421.07 C0.73 459.55 0.72 498.02 0.73 536.5 C0.73 540.6 0.73 544.7 0.73 548.8 C0.73 549.8 0.73 550.81 0.73 551.85 C0.74 567.12 0.73 582.39 0.73 597.66 C0.72 615.01 0.72 632.36 0.73 649.72 C0.74 659.44 0.74 669.16 0.73 678.88 C0.73 685.37 0.73 691.85 0.74 698.33 C0.74 702.03 0.75 705.73 0.74 709.43 C0.73 713.41 0.74 717.38 0.75 721.36 C0.74 722.52 0.74 723.69 0.73 724.89 C0.74 725.94 0.74 726.99 0.75 728.07 C0.75 728.98 0.75 729.89 0.75 730.83 C1 733 1 733 3 735 C5.17 735.25 5.17 735.25 7.93 735.25 C8.98 735.26 10.03 735.26 11.11 735.27 C12.28 735.26 13.44 735.26 14.64 735.25 C15.88 735.25 17.11 735.26 18.38 735.26 C21.83 735.27 25.29 735.26 28.74 735.26 C32.48 735.25 36.23 735.26 39.97 735.26 C46.55 735.27 53.12 735.27 59.7 735.27 C69.47 735.26 79.25 735.26 89.02 735.27 C106.47 735.28 123.93 735.28 141.38 735.27 C156.66 735.27 171.93 735.27 187.2 735.27 C188.22 735.27 189.23 735.27 190.27 735.27 C194.38 735.27 198.48 735.27 202.59 735.27 C241.14 735.28 279.69 735.27 318.23 735.26 C352.51 735.25 386.79 735.25 421.07 735.26 C459.55 735.27 498.02 735.28 536.5 735.27 C540.6 735.27 544.7 735.27 548.8 735.27 C549.3 735.27 549.3 735.27 551.85 735.27 C567.12 735.26 582.39 735.27 597.66 735.27 C615.01 735.28 632.36 735.28 649.72 735.27 C659.44 735.26 669.16 735.26 678.88 735.27 C685.37 735.27 691.85 735.27 698.33 735.26 C702.03 735.26 705.73 735.25 709.43 735.26 C713.41 735.27 717.38 735.26 721.36 735.25 C722.52 735.26 723.69 735.26 724.89 735.27 C725.94 735.26 726.99 735.26 728.07 735.25 C728.53 735.25 728.53 735.25 730.83 735.25 C733 735 733 735 735 733 C735.25 730.83 735.25 730.83 735.25 728.07 C735.26 727.02 735.26 725.97 735.27 724.89 C735.26 723.72 735.26 722.56 735.25 721.36 C735.25 720.12 735.26 718.89 735.26 717.62 C735.27 714.17 735.26 710.71 735.26 707.26 C735.25 703.52 735.26 699.77 735.26 696.03 C735.27 689.45 735.27 682.88 735.27 676.3 C735.26 666.53 735.26 656.75 735.27 646.98 C735.28 629.53 735.28 612.07 735.27 594.62 C735.27 579.34 735.27 564.07 735.27 548.8 C735.27 547.78 735.27 546.77 735.27 545.73 C735.27 541.62 735.27 537.52 735.27 533.41 C735.28 494.86 735.27 456.31 735.26 417.77 C735.25 383.49 735.25 349.21 735.26 314.93 C735.27 276.45 735.28 237.98 735.27 199.5 C735.27 195.4 735.27 191.3 735.27 187.2 C735.27 186.2 735.27 185.19 735.27 184.15 C735.26 168.88 735.27 153.61 735.27 138.34 C735.28 120.99 735.28 103.64 735.27 86.28 C735.26 76.56 735.26 66.84 735.27 57.12 C735.27 50.63 735.27 44.15 735.26 37.67 C735.26 33.97 735.25 30.27 735.26 26.57 C735.27 22.59 735.26 18.62 735.25 14.64 C735.25 14.06 735.25 14.06 735.27 11.11 C735.26 10.06 735.26 9.01 735.25 7.93 C735.25 7.02 735.25 6.11 735.25 5.17 C735 3 735 3 733 1 C730.83 0.75 730.83 0.75 728.07 0.75 C727.02 0.74 725.97 0.74 724.89 0.73 C723.72 0.74 722.56 0.74 721.36 0.75 C720.12 0.75 718.89 0.74 717.62 0.74 C714.17 0.73 710.71 0.74 707.26 0.74 C703.52 0.75 699.77 0.74 696.03 0.74 C689.45 0.73 682.88 0.73 676.3 0.73 C666.53 0.74 656.75 0.74 646.98 0.73 C629.53 0.72 612.07 0.72 594.62 0.73 C579.34 0.73 564.07 0.73 548.8 0.73 C547.78 0.73 546.77 0.73 545.73 0.73 C541.62 0.73 537.52 0.73 533.41 0.73 C494.86 0.72 456.31 0.73 417.77 0.74 C383.49 0.75 349.21 0.75 314.93 0.74 C276.45 0.73 237.98 0.72 199.5 0.73 C195.4 0.73 191.3 0.73 187.2 0.73 C186.7 0.73 186.7 0.73 184.15 0.73 C168.88 0.74 153.61 0.73 138.34 0.73 C120.99 0.72 103.64 0.72 86.28 0.73 C76.56 0.74 66.84 0.74 57.12 0.73 C50.63 0.73 44.15 0.73 37.67 0.74 C33.97 0.74 30.27 0.75 26.57 0.74 C22.59 0.73 18.62 0.74 14.64 0.75 C13.48 0.74 12.31 0.74 11.11 0.73 C10.58 0.74 10.58 0.74 7.93 0.75 C7.47 0.75 7.47 0.75 5.17 0.75 C3 1 3 1 1 3 Z " fill="#F12C34" transform="translate(0,0)"/>
<path d="M0 0 C1.51 1.51 1.2 2.89 1.28 5 C1.32 5.8 1.36 6.61 1.39 7.44 C1.46 9.15 1.54 10.85 1.61 12.56 C1.64 13.37 1.68 14.17 1.72 15 C1.75 15.74 1.78 16.49 1.81 17.25 C2 19 2 19 3 20 C5.55 20.28 8.1 20.45 10.65 20.62 C13 21 13 21 15 23 C15.27 25.75 15.27 25.75 15.25 29 C15.25 29.54 15.25 29.54 15.27 32.25 C15 35 15 35 13 37 C10.65 37.38 10.65 37.38 7.94 37.56 C3.1 37.9 3.1 37.9 2 39 C1.9 40.36 1.86 41.73 1.85 43.09 C1.85 43.96 1.84 44.82 1.84 45.72 C1.83 46.66 1.83 47.61 1.83 48.58 C1.83 49.55 1.83 50.51 1.82 51.51 C1.82 53.56 1.81 55.61 1.81 57.65 C1.81 60.79 1.79 63.92 1.78 67.06 C1.77 69.04 1.77 71.03 1.77 73.02 C1.76 73.96 1.76 74.9 1.75 75.86 C1.75 76.74 1.75 77.62 1.76 78.52 C1.76 79.29 1.75 80.06 1.75 80.86 C2.04 83.32 2.68 84.9 4 87 C6.35 88.23 6.35 88.23 9.06 89.19 C13.95 90.95 13.95 90.95 15 92 C15.12 93.64 15.18 95.29 15.19 96.94 C15.2 97.83 15.22 98.73 15.23 99.65 C15 102 15 102 13 104 C3.62 105.04 -5.18 104.19 -12.81 98.38 C-19.62 91.65 -20.43 84.33 -20.53 75.07 C-20.53 72.48 -20.51 69.88 -20.5 67.29 C-20.5 65.47 -20.5 63.65 -20.5 61.83 C-20.5 58.04 -20.49 54.25 -20.47 50.45 C-20.44 45.59 -20.44 40.72 -20.45 35.85 C-20.46 32.11 -20.45 28.36 -20.44 24.61 C-20.44 22.82 -20.44 21.02 -20.44 19.23 C-20.44 16.73 -20.43 14.23 -20.4 11.73 C-20.41 10.98 -20.41 10.24 -20.42 9.48 C-20.35 4.49 -20.35 4.49 -18.65 2.07 C-16.23 0.5 -13.96 0.19 -11.12 -0.25 C-10.1 -0.42 -9.07 -0.59 -8.01 -0.77 C-5.06 -1 -2.84 -0.79 0 0 Z " fill="#FDF8F7" transform="translate(397,402)"/>
<path d="M0 0 C2.51 2.51 2.24 4.03 2.26 7.46 C2.25 8.22 2.25 8.98 2.24 9.77 C2.24 10.57 2.24 11.37 2.25 12.2 C2.25 13.94 2.25 15.69 2.24 17.43 C2.24 20.19 2.25 22.95 2.26 25.71 C2.3 33.57 2.32 41.42 2.31 49.27 C2.3 54.07 2.32 58.87 2.35 63.67 C2.36 65.5 2.36 67.33 2.35 69.16 C2.33 71.72 2.35 74.28 2.37 76.84 C2.36 77.6 2.35 78.35 2.34 79.13 C2.41 83.06 2.86 84.82 5.34 87.93 C8.18 90.14 10.55 91.06 14 92 C15.67 93.67 15.17 95.66 15.19 97.94 C15.2 98.83 15.22 99.73 15.23 100.65 C15 103 15 103 13 105 C4.74 105.99 -3.3 105.26 -10.23 100.45 C-15.86 95.83 -18.85 91.26 -20 84 C-20.1 81.4 -20.16 78.83 -20.16 76.23 C-20.17 75.46 -20.17 74.7 -20.18 73.91 C-20.19 71.38 -20.2 68.86 -20.2 66.34 C-20.21 64.58 -20.21 62.82 -20.22 61.07 C-20.23 57.39 -20.24 53.71 -20.24 50.04 C-20.25 45.32 -20.27 40.6 -20.3 35.89 C-20.32 32.26 -20.32 28.64 -20.32 25.01 C-20.33 23.27 -20.33 21.53 -20.35 19.79 C-20.36 17.37 -20.36 14.94 -20.36 12.51 C-20.36 12.15 -20.36 12.15 -20.38 10.33 C-20.36 7.44 -20.34 5.48 -18.65 3.08 C-16.23 1.5 -13.97 1.23 -11.12 0.81 C-10.1 0.65 -9.07 0.5 -8.01 0.33 C-5.28 0.03 -2.74 -0.21 0 0 Z " fill="#FEFEFD" transform="translate(516,401)"/>
<path d="M0 0 C0.72 -0.01 1.44 -0.02 2.19 -0.03 C6.64 0.04 9.47 0.79 13.06 3.44 C12.46 7.57 11.12 10.81 9.06 14.44 C6.33 15.81 3.93 15.66 0.88 15.81 C-4.43 16.18 -8.32 16.81 -12.94 19.44 C-14.27 22.1 -14.08 24.16 -14.11 27.14 C-14.12 28.34 -14.14 29.53 -14.15 30.76 C-14.16 32.06 -14.17 33.35 -14.18 34.69 C-14.2 36.03 -14.22 37.36 -14.23 38.7 C-14.3 44.39 -14.36 50.07 -14.41 55.76 C-14.45 59.24 -14.49 62.72 -14.53 66.19 C-14.56 68.17 -14.57 70.14 -14.58 72.11 C-14.6 73.31 -14.62 74.5 -14.63 75.73 C-14.64 76.26 -14.64 76.26 -14.67 78.93 C-14.94 81.44 -14.94 81.44 -16.94 83.44 C-19.81 83.64 -22.57 83.72 -25.44 83.69 C-25.83 83.69 -25.83 83.69 -27.82 83.71 C-33.68 83.69 -33.68 83.69 -35.94 81.44 C-36.2 78.76 -36.2 78.76 -36.23 75.32 C-36.24 74.04 -36.25 72.75 -36.27 71.43 C-36.27 70.02 -36.27 68.61 -36.27 67.2 C-36.28 65.76 -36.29 64.31 -36.29 62.87 C-36.31 59.84 -36.31 56.82 -36.31 53.79 C-36.31 49.92 -36.34 46.04 -36.37 42.17 C-36.39 39.19 -36.4 36.21 -36.39 33.23 C-36.4 31.8 -36.41 30.37 -36.42 28.94 C-36.44 26.94 -36.43 24.94 -36.42 22.94 C-36.43 21.8 -36.43 20.67 -36.43 19.49 C-35.67 14.81 -33.19 12.43 -29.56 9.56 C-19.99 3.42 -11.39 0.13 0 0 Z " fill="#FDFDFC" transform="translate(357.9375,421.5625)"/>
<path d="M0 0 C0.05 10.14 0.08 20.27 0.1 30.41 C0.11 35.11 0.13 39.82 0.15 44.52 C0.17 49.06 0.18 53.6 0.19 58.14 C0.19 59.87 0.2 61.61 0.21 63.34 C0.23 65.77 0.23 68.19 0.23 70.61 C0.23 70.97 0.23 70.97 0.25 72.8 C0.23 77.77 0.23 77.77 -2 80 C-4.87 80.2 -7.63 80.28 -10.5 80.25 C-10.89 80.25 -10.89 80.25 -12.88 80.27 C-18.75 80.25 -18.75 80.25 -21 78 C-21.27 74.93 -21.27 74.93 -21.31 70.94 C-21.31 70.21 -21.32 69.48 -21.33 68.73 C-21.36 66.32 -21.36 63.91 -21.37 61.5 C-21.38 59.83 -21.39 58.16 -21.4 56.49 C-21.41 52.98 -21.42 49.48 -21.43 45.97 C-21.43 41.47 -21.47 36.98 -21.51 32.48 C-21.54 29.03 -21.55 25.57 -21.55 22.12 C-21.56 20.46 -21.57 18.8 -21.59 17.15 C-21.62 14.83 -21.61 12.51 -21.6 10.19 C-21.6 8.87 -21.61 7.55 -21.61 6.19 C-21 3 -21 3 -18.65 1.1 C-15.73 -0.11 -13.05 -0.8 -9.94 -1.31 C-9.43 -1.4 -9.43 -1.4 -6.84 -1.86 C-3.77 -2.01 -2.62 -1.45 0 0 Z " fill="#FEFEFE" transform="translate(306,425)"/>
<path d="M0 0 C4.11 2.37 6.98 5.38 9.5 9.38 C10.76 16.01 10.56 21.3 7.21 27.27 C5.03 30.38 2.36 32.32 -1 34 C-5.65 34.57 -9.1 34.46 -13.31 32.31 C-17.62 28.61 -20.62 25.38 -21.27 19.58 C-21.53 12.68 -20.61 8.24 -16 3 C-11.64 -1.1 -5.65 -1.11 0 0 Z " fill="#FCD8D6" transform="translate(347,542)"/>
<path d="M0 0 C4.86 2.34 7.48 5.25 10 10 C10.88 13.75 10.88 13.75 11 17 C8.44 19.56 7.33 19.3 3.77 19.41 C2.74 19.45 1.71 19.49 0.65 19.53 C-0.43 19.56 -1.51 19.59 -2.62 19.62 C-3.71 19.66 -4.8 19.7 -5.92 19.74 C-8.61 19.84 -11.31 19.92 -14 20 C-13.2 24.77 -13.2 24.77 -11.44 26.81 C-7.95 28.51 -4.76 28.66 -1 28 C1.57 26.88 3.65 25.57 6 24 C6.33 25.65 6.66 27.3 7 29 C2.23 32.64 -1.71 34.86 -7.82 34.49 C-12.77 33.38 -15.95 30.44 -18.88 26.44 C-21.19 21.42 -22.14 16.3 -20.28 10.91 C-16.01 1.66 -9.84 -1.08 0 0 Z " fill="#FCDAD8" transform="translate(421,542)"/>
<path d="M0 0 C0.36 0 0.36 0 2.18 0.01 C4.12 0.31 4.12 0.31 7.12 2.31 C13.19 1.78 13.19 1.78 16.12 0.31 C20.63 -0.23 24.07 -0.29 28.06 2 C32.97 7.5 32.46 13.52 32.44 20.5 C32.45 21.51 32.47 22.52 32.49 23.56 C32.49 24.52 32.49 25.49 32.49 26.48 C32.49 27.36 32.49 28.24 32.5 29.15 C32.37 29.86 32.25 30.58 32.12 31.31 C31.13 31.97 30.14 32.63 29.12 33.31 C26.61 30.8 26.85 29.89 26.78 26.41 C26.75 25.44 26.72 24.46 26.69 23.46 C26.67 22.44 26.65 21.42 26.62 20.38 C26.58 18.37 26.53 16.36 26.47 14.35 C26.45 13.45 26.43 12.56 26.41 11.64 C26.12 9.31 26.12 9.31 24.12 6.31 C19.96 5.68 17.91 5.76 14.43 8.21 C11.18 12.58 11.45 16.19 11.5 21.5 C11.5 23.31 11.49 25.11 11.46 26.92 C11.47 27.71 11.47 28.51 11.48 29.33 C11.36 29.98 11.25 30.64 11.12 31.31 C10.13 31.97 9.14 32.63 8.12 33.31 C5.57 30.75 5.85 29.71 5.78 26.16 C5.75 25.13 5.72 24.11 5.69 23.06 C5.67 21.98 5.67 21.98 5.56 16.57 C5.53 15.54 5.5 14.52 5.47 13.47 C5.45 12.53 5.43 11.59 5.41 10.62 C5.12 8.31 5.12 8.31 3.12 6.31 C-1.01 5.77 -3.1 5.77 -6.55 8.2 C-9.83 12.59 -9.65 16.28 -9.69 21.62 C-9.71 22.56 -9.74 23.49 -9.76 24.45 C-9.82 26.74 -9.86 29.02 -9.88 31.31 C-11.19 31.31 -12.51 31.31 -13.88 31.31 C-13.88 22.07 -13.88 12.83 -13.88 3.31 C-3.68 -0.09 -3.68 -0.09 0 0 Z " fill="#FBD5D4" transform="translate(285.875,541.6875)"/>
<path d="M0 0 C3.62 2.12 6.79 4.9 8 9 C8.46 13.17 8.29 15.43 6.38 19.19 C2.84 23.38 0.01 25.71 -5.5 26.5 C-10.45 25.79 -13.27 23.67 -16.81 20.25 C-18.56 16.94 -19.11 13.7 -19 10 C-17.36 5.28 -15.12 2.78 -11 0 C-7.13 -1.29 -3.87 -1.08 0 0 Z " fill="#FDF8F8" transform="translate(301,391)"/>
<path d="M0 0 C1.05 0 2.11 0.01 3.2 0.01 C5.88 0.31 5.88 0.31 7.88 2.31 C8.38 5.58 8.29 8.88 8.31 12.19 C8.33 12.64 8.33 12.64 8.41 14.95 C8.47 21.63 8.47 21.63 5.62 24.91 C1.54 26.99 -1.64 27.09 -6.12 26.31 C-9.59 24.61 -11.49 23.35 -13.5 20.06 C-14.74 14.61 -14.97 10.92 -12.38 6 C-8.47 1.34 -6.17 -0.1 0 0 Z " fill="#EC1E26" transform="translate(241.125,465.6875)"/>
<path d="M0 0 C0.6 0.23 1.2 0.45 1.81 0.69 C0.82 1.02 -0.17 1.35 -1.19 1.69 C-2.27 9.18 -2.24 16.56 -2.08 24.11 C-2.03 26.34 -1.99 28.57 -1.95 30.81 C-1.87 35.54 -1.78 40.27 -1.69 45 C-1.58 50.5 -1.48 56.01 -1.38 61.51 C-1.34 63.71 -1.3 65.9 -1.25 68.1 C-1.23 69.44 -1.2 70.79 -1.18 72.13 C-1.16 73.31 -1.14 74.48 -1.11 75.69 C-1.18 78.26 -1.56 80.23 -2.19 82.69 C-1.3 85.16 -1.3 85.16 0.06 87.75 C0.28 88.18 0.28 88.18 1.39 90.35 C5.03 96.34 10.23 97.91 16.81 99.69 C20.01 100.08 22.57 100 25.81 99.69 C26.14 99.36 26.14 99.36 27.81 97.69 C27.75 95.22 27.75 95.22 26.81 92.69 C24.6 91.28 24.6 91.28 21.88 90.19 C17.14 88.28 17.14 88.28 15.67 85.61 C14.57 81.87 14.59 78.36 14.68 74.5 C14.69 73.69 14.7 72.88 14.71 72.05 C14.74 69.38 14.79 66.71 14.84 64.04 C14.86 62.19 14.89 60.34 14.91 58.48 C14.98 53.61 15.06 48.74 15.14 43.87 C15.22 38.89 15.29 33.92 15.36 28.95 C15.5 19.19 15.65 9.44 15.81 -0.31 C16.14 -0.31 16.47 -0.31 16.81 -0.31 C16.81 0.72 16.82 1.74 16.82 2.8 C16.83 12.5 16.88 22.2 16.94 31.89 C16.98 36.88 17 41.86 17.01 46.85 C17.01 51.66 17.04 56.47 17.09 61.28 C17.1 63.12 17.1 64.95 17.1 66.79 C17.09 69.36 17.12 71.93 17.15 74.5 C17.15 74.88 17.15 74.88 17.13 76.8 C17.21 80.73 17.67 82.51 20.15 85.62 C22.99 87.82 25.37 88.75 28.81 89.69 C30.48 91.35 29.98 93.35 30 95.62 C30.01 96.52 30.03 97.42 30.04 98.34 C29.81 100.69 29.81 100.69 27.81 102.69 C19.55 103.68 11.51 102.95 4.59 98.14 C-1.05 93.51 -4.04 88.95 -5.19 81.69 C-5.29 79.09 -5.34 76.51 -5.35 73.92 C-5.35 73.15 -5.36 72.38 -5.36 71.59 C-5.38 69.07 -5.39 66.55 -5.39 64.02 C-5.4 62.27 -5.4 60.51 -5.41 58.75 C-5.42 55.08 -5.42 51.4 -5.43 47.72 C-5.43 43.01 -5.46 38.29 -5.49 33.58 C-5.5 29.95 -5.51 26.33 -5.51 22.7 C-5.51 20.96 -5.52 19.22 -5.54 17.48 C-5.55 15.05 -5.55 12.63 -5.54 10.2 C-5.55 9.84 -5.55 9.84 -5.57 8.02 C-5.55 5.09 -5.51 3.14 -3.8 0.7 C-2.19 -0.31 -2.19 -0.31 0 0 Z " fill="#FBD1D0" transform="translate(501.1875,403.3125)"/>
<path d="M0 0 C3.51 2.52 5.61 5.23 6.55 9.48 C6.79 13.91 6.46 17.05 3.62 20.56 C0.6 23.38 -0.18 23.91 -4.25 24.38 C-9.03 23.9 -10.72 22.43 -14 19 C-16.52 14.84 -16.14 11.65 -15 7 C-13.34 3.97 -11.9 1.71 -9.19 -0.44 C-5.68 -1.34 -3.48 -1.02 0 0 Z " fill="#EC1E27" transform="translate(346,547)"/>
<path d="M0 0 C3.99 -0.19 6.08 -0.14 9.59 1.95 C14.59 7.4 13.99 12.75 13.96 19.82 C13.98 20.89 14 21.95 14.01 23.04 C14.01 24.06 14.01 25.07 14.02 26.11 C14.02 27.04 14.02 27.97 14.02 28.92 C13.9 29.68 13.78 30.43 13.65 31.2 C12.66 31.86 11.67 32.52 10.65 33.2 C8.14 30.68 8.4 29.81 8.38 26.33 C8.36 25.36 8.34 24.4 8.32 23.4 C8.29 21.36 8.27 19.32 8.26 17.27 C8.08 9.82 8.08 9.82 5.8 6.51 C3.65 5.2 3.65 5.2 0.71 5.14 C-3.26 6.51 -4.78 7.84 -7.35 11.2 C-8.02 14.6 -8 17.93 -7.97 21.39 C-7.97 23.19 -7.99 25 -8.01 26.8 C-8.01 27.6 -8 28.4 -7.99 29.22 C-8.11 29.87 -8.23 30.52 -8.35 31.2 C-9.34 31.86 -10.33 32.52 -11.35 33.2 C-14.66 29.89 -13.64 25.67 -13.67 21.17 C-13.67 19.86 -13.66 18.55 -13.66 17.2 C-13.68 15.89 -13.69 14.58 -13.71 13.23 C-13.71 11.98 -13.71 10.73 -13.71 9.45 C-13.71 8.3 -13.72 7.15 -13.72 5.96 C-13.6 5.05 -13.47 4.14 -13.35 3.2 C-9.1 0.37 -4.94 0.42 0 0 Z " fill="#FBCCCB" transform="translate(378.34765625,541.80078125)"/>
<path d="M0 0 C2.45 0.97 3.76 1.62 5.19 3.88 C5.5 4.62 5.82 5.37 6.14 6.13 C6.49 6.94 6.84 7.74 7.2 8.57 C7.54 9.42 7.89 10.26 8.25 11.12 C8.61 11.97 8.98 12.82 9.35 13.7 C10.25 15.79 11.13 17.89 12 20 C12.66 20 13.32 20 14 20 C14.23 19.47 14.45 18.93 14.69 18.38 C15.72 15.96 16.77 13.54 17.81 11.12 C18.17 10.28 18.53 9.44 18.89 8.57 C19.07 8.17 19.07 8.17 19.96 6.13 C20.28 5.39 20.6 4.65 20.93 3.88 C22 2 22 2 25 0 C25.66 0.66 26.32 1.32 27 2 C26.64 6.72 24.43 11.01 22.54 15.29 C22.37 15.69 22.37 15.69 21.5 17.68 C20.77 19.34 20.04 20.99 19.31 22.65 C18.19 25.18 17.09 27.73 15.99 30.27 C15.28 31.88 14.57 33.49 13.86 35.11 C13.53 35.87 13.2 36.63 12.87 37.41 C10.51 42.66 10.51 42.66 7.76 44.49 C7.18 44.66 6.6 44.83 6 45 C5.05 42.43 4.91 41.26 5.81 38.63 C6.6 36.97 7.39 35.3 8.19 33.63 C10.48 26.21 5.25 18.77 2.06 12.26 C1.66 11.4 1.25 10.54 0.84 9.65 C0.46 8.88 0.08 8.11 -0.3 7.31 C-1.14 4.52 -0.77 2.77 0 0 Z " fill="#FCD8D7" transform="translate(437,543)"/>
<path d="M0 0 C0.66 0.33 1.32 0.66 2 1 C0.62 2.5 0.62 2.5 -1 4 C-1.66 4 -2.32 4 -3 4 C-3 4.66 -3 5.32 -3 6 C-3.66 6 -4.32 6 -5 6 C-7.3 10.45 -8.13 13.82 -8.13 18.83 C-8.13 20.03 -8.14 21.23 -8.14 22.46 C-8.14 23.76 -8.13 25.05 -8.13 26.38 C-8.13 27.72 -8.13 29.06 -8.14 30.4 C-8.14 33.2 -8.14 36 -8.13 38.81 C-8.12 42.41 -8.13 46 -8.13 49.6 C-8.14 52.37 -8.14 55.13 -8.13 57.89 C-8.13 59.87 -8.14 61.84 -8.14 63.82 C-8.14 64.41 -8.14 64.41 -8.13 67.43 C-8.13 68.48 -8.13 69.54 -8.13 70.62 C-8 73 -8 73 -7 74 C-4.65 74.07 -2.29 74.08 0.06 74.06 C1.35 74.05 2.64 74.04 3.97 74.04 C4.97 74.02 5.97 74.01 7 74 C7 73.27 7 72.54 7 71.79 C7.02 64.92 7.06 58.05 7.13 51.18 C7.17 47.65 7.19 44.12 7.2 40.58 C7.2 36.52 7.25 32.46 7.29 28.39 C7.29 27.13 7.29 25.87 7.28 24.56 C7.44 14.8 7.44 14.8 10.54 11.66 C10.95 11.39 10.95 11.39 13 10 C13.33 10.66 13.66 11.32 14 12 C13.51 12.38 13.03 12.75 12.53 13.14 C10.4 15.73 10.62 17.49 10.6 20.82 C10.59 22.01 10.57 23.21 10.56 24.44 C10.56 25.73 10.56 27.02 10.56 28.35 C10.55 29.68 10.53 31.02 10.52 32.36 C10.48 35.87 10.46 39.39 10.45 42.9 C10.42 48.53 10.38 54.17 10.33 59.8 C10.31 61.76 10.31 63.73 10.3 65.7 C10.29 66.89 10.28 68.09 10.27 69.31 C10.27 70.37 10.26 71.42 10.26 72.5 C10 75 10 75 8 77 C5.13 77.2 2.37 77.28 -0.5 77.25 C-0.89 77.25 -0.89 77.25 -2.88 77.27 C-8.75 77.25 -8.75 77.25 -11 75 C-11.27 72.33 -11.27 72.33 -11.29 68.89 C-11.3 67.6 -11.32 66.32 -11.33 64.99 C-11.33 63.58 -11.33 62.17 -11.34 60.76 C-11.34 59.32 -11.35 57.88 -11.36 56.43 C-11.37 53.41 -11.37 50.38 -11.37 47.35 C-11.37 43.48 -11.4 39.61 -11.43 35.73 C-11.45 32.75 -11.46 29.77 -11.46 26.79 C-11.46 25.36 -11.47 23.93 -11.48 22.51 C-11.5 20.5 -11.5 18.5 -11.49 16.5 C-11.49 15.37 -11.49 14.23 -11.49 13.06 C-10.77 8.6 -8.49 6.23 -5.08 3.42 C-3.39 2.28 -1.69 1.14 0 0 Z " fill="#FDEEEB" transform="translate(333,428)"/>
<path d="M0 0 C5.03 3.58 5.92 7.21 7 13 C2.67 16.23 -0.37 16.28 -5.69 15.88 C-6.36 15.84 -7.04 15.8 -7.74 15.77 C-9.7 15.62 -9.7 15.62 -13 15 C-13.66 14.01 -14.32 13.02 -15 12 C-14.46 9.59 -14.46 9.59 -13.38 6.94 C-13.03 6.06 -12.69 5.18 -12.34 4.28 C-9.52 -0.52 -5.21 -0.64 0 0 Z " fill="#EC2028" transform="translate(456,438)"/>
<path d="M0 0 C0.33 0 0.66 0 1 0 C1 1.03 1 2.06 1 3.12 C1.02 12.81 1.06 22.51 1.13 32.21 C1.17 37.19 1.19 42.18 1.2 47.16 C1.2 51.97 1.23 56.78 1.27 61.59 C1.29 63.43 1.29 65.26 1.29 67.1 C1.28 69.67 1.31 72.24 1.34 74.81 C1.34 75.19 1.34 75.19 1.31 77.11 C1.4 81.04 1.86 82.82 4.34 85.93 C7.18 88.14 9.56 89.06 13 90 C14.67 91.67 14.17 93.66 14.19 95.94 C14.2 96.83 14.22 97.73 14.23 98.65 C14 101 14 101 12 103 C3.74 103.99 -4.3 103.26 -11.23 98.45 C-15.26 95.14 -18.24 92.04 -20 87 C-19.83 86.67 -19.83 86.67 -19 85 C-16.94 86.85 -15.66 88.55 -14.19 90.94 C-10.27 96.43 -5.52 98.67 1 100 C4.02 100.24 6.99 100.42 10 100 C10.33 99.67 10.33 99.67 12 98 C11.93 95.53 11.93 95.53 11 93 C8.79 91.59 8.79 91.59 6.06 90.5 C1.32 88.59 1.32 88.59 -0.14 85.92 C-1.24 82.18 -1.22 78.67 -1.14 74.81 C-1.13 74 -1.12 73.19 -1.11 72.36 C-1.07 69.69 -1.02 67.02 -0.98 64.36 C-0.95 62.5 -0.93 60.65 -0.9 58.79 C-0.83 53.92 -0.76 49.05 -0.67 44.18 C-0.59 39.21 -0.52 34.23 -0.45 29.26 C-0.31 19.51 -0.16 9.75 0 0 Z " fill="#FABEBE" transform="translate(517,403)"/>
<path d="M0 0 C0.66 0.33 1.32 0.66 2 1 C-2.52 6.77 -2.52 6.77 -5.12 8 C-8.03 9.55 -8.73 12.07 -10 15 C-10.66 15 -11.32 15 -12 15 C-12 15.99 -12 16.98 -12 18 C-12.66 18 -13.32 18 -14 18 C-14 18.99 -14 19.98 -14 21 C-14.66 21 -15.32 21 -16 21 C-16.14 21.43 -16.14 21.43 -16.87 23.62 C-17.58 25.75 -18.31 27.86 -19.07 29.97 C-21.99 38.54 -24.05 47 -21.04 55.83 C-17.46 62.74 -12.24 66.38 -5 69 C-1.65 69.67 1.58 69.99 5 70 C5 70.33 5 70.66 5 71 C-3.4 71.57 -11.19 71.1 -17.85 65.42 C-24.03 58.66 -25.59 52.42 -25.34 43.39 C-23.79 28.04 -14.23 11.76 -2.5 1.88 C-1.68 1.26 -0.85 0.64 0 0 Z " fill="#FBCDCC" transform="translate(337,281)"/>
<path d="M0 0 C1 3 1 3 0.15 4.9 C-5.01 12.59 -11.52 18.66 -18.21 25.01 C-25.43 32.01 -33.04 39.54 -34 50 C-33 51.88 -33 51.88 -31 53 C-26.82 53.31 -23.06 52.98 -19 52 C-19 52.66 -19 53.32 -19 54 C-23.81 56.73 -28.79 56.38 -34 55 C-36.76 52.24 -36.95 50.54 -37.29 46.68 C-36.94 42.28 -35.91 40.68 -33.19 37.25 C-32.76 36.71 -32.33 36.17 -31.9 35.62 C-26.69 29.28 -20.72 23.64 -14.85 17.91 C-9.19 12.33 -4.22 6.78 0 0 Z " fill="#FBD5D3" transform="translate(369,290)"/>
<path d="M0 0 C7.97 0.8 13.21 3.46 19 9 C22.67 14.18 24.11 18.78 24.18 25.06 C24.19 26.06 24.2 27.07 24.22 28.1 C24.22 29.18 24.23 30.26 24.24 31.37 C24.25 32.49 24.25 33.6 24.26 34.75 C24.28 37.1 24.29 39.46 24.3 41.82 C24.31 45.42 24.36 49.02 24.4 52.63 C24.41 54.92 24.42 57.21 24.43 59.5 C24.44 60.57 24.46 61.65 24.48 62.76 C24.46 70.23 24.46 70.23 22.14 74.11 C19.69 76.27 17.28 77.8 14.38 79.31 C13.41 79.82 12.45 80.34 11.46 80.86 C9 82 9 82 7 82 C8.22 78.35 9 78.19 12.31 76.5 C20.59 72.23 20.59 72.23 22 68 C22.11 65.02 22.16 62.07 22.17 59.09 C22.17 58.21 22.17 57.33 22.18 56.42 C22.18 54.55 22.19 52.68 22.19 50.81 C22.19 47.97 22.21 45.14 22.22 42.31 C22.23 40.48 22.23 38.66 22.23 36.84 C22.24 36 22.24 35.17 22.25 34.31 C22.22 26.39 21.52 17.7 17 11 C12.85 7.23 8.18 5.01 3 3 C3 2.34 3 1.68 3 1 C2.01 0.67 1.02 0.34 0 0 Z " fill="#FCDAD8" transform="translate(246,422)"/>
<path d="M0 0 C0 0.66 0 1.32 0 2 C-3.96 2.66 -7.92 3.32 -12 4 C-12.03 5.99 -12.05 7.98 -12.08 10.02 C-12.16 16.61 -12.25 23.2 -12.34 29.79 C-12.39 33.79 -12.45 37.78 -12.5 41.77 C-12.55 45.63 -12.6 49.49 -12.65 53.34 C-12.67 54.81 -12.69 56.28 -12.71 57.75 C-12.79 64.89 -12.88 71.93 -14 79 C-14.33 79 -14.66 79 -15 79 C-15.12 69.27 -15.2 59.55 -15.26 49.82 C-15.29 45.3 -15.32 40.79 -15.38 36.27 C-15.43 31.91 -15.46 27.56 -15.47 23.2 C-15.48 21.53 -15.5 19.87 -15.53 18.21 C-15.56 15.88 -15.57 13.55 -15.57 11.23 C-15.59 10.53 -15.6 9.84 -15.62 9.13 C-15.6 7.21 -15.6 7.21 -15 4 C-10.45 0.3 -5.71 0 0 0 Z " fill="#FAC2C2" transform="translate(300,424)"/>
<path d="M0 0 C0.66 0.33 1.32 0.66 2 1 C0.62 2.5 0.62 2.5 -1 4 C-1.66 4 -2.32 4 -3 4 C-3 4.66 -3 5.32 -3 6 C-3.66 6 -4.32 6 -5 6 C-7.29 10.43 -8.13 13.83 -8.17 18.82 C-8.19 20.01 -8.2 21.21 -8.21 22.44 C-8.22 23.73 -8.24 25.02 -8.25 26.35 C-8.26 27.68 -8.28 29.02 -8.29 30.36 C-8.37 36.03 -8.43 41.7 -8.48 47.38 C-8.51 50.85 -8.55 54.32 -8.6 57.8 C-8.62 59.76 -8.63 61.73 -8.65 63.7 C-8.66 64.89 -8.68 66.09 -8.7 67.31 C-8.71 68.37 -8.72 69.42 -8.73 70.5 C-9 73 -9 73 -11 75 C-11.09 66.61 -11.16 58.22 -11.21 49.83 C-11.23 45.94 -11.26 42.04 -11.3 38.15 C-11.35 34.39 -11.37 30.63 -11.38 26.87 C-11.39 25.43 -11.4 24 -11.42 22.57 C-11.45 20.56 -11.45 18.55 -11.45 16.53 C-11.46 15.96 -11.46 15.96 -11.48 13.07 C-10.78 8.6 -8.5 6.23 -5.08 3.42 C-3.39 2.28 -1.69 1.14 0 0 Z " fill="#FAC5C4" transform="translate(333,428)"/>
<path d="M0 0 C4.84 7.25 6.06 17.38 5 26 C1.88 29.12 -1.94 28.34 -6.13 28.38 C-6.58 28.39 -6.58 28.39 -8.87 28.43 C-11.77 28.48 -14.67 28.52 -17.56 28.56 C-20.46 28.61 -23.36 28.65 -26.26 28.71 C-28.07 28.74 -29.88 28.76 -31.69 28.79 C-37.89 28.89 -37.89 28.89 -39 30 C-39.07 31.52 -39.08 33.04 -39.06 34.56 C-39.05 35.39 -39.04 36.22 -39.04 37.07 C-39.02 37.7 -39.01 38.34 -39 39 C-39.66 39 -40.32 39 -41 39 C-41.22 37.21 -41.43 35.42 -41.62 33.62 C-41.74 32.63 -41.86 31.63 -41.98 30.6 C-41.98 29.74 -41.99 28.88 -42 28 C-38.88 24.88 -35.06 25.66 -30.87 25.62 C-30.42 25.61 -30.42 25.61 -28.13 25.57 C-25.23 25.52 -22.33 25.48 -19.44 25.44 C-16.54 25.39 -13.64 25.35 -10.74 25.29 C-8.93 25.26 -7.12 25.24 -5.31 25.21 C0.89 25.11 0.89 25.11 2 24 C2.36 16.35 1.42 9.27 -1 2 C-0.67 1.34 -0.34 0.68 0 0 Z " fill="#FAC7C6" transform="translate(480,439)"/>
<path d="M0 0 C3.3 2.2 4.74 3.21 6 7 C4 9 4 9 0.09 9.2 C-1.48 9.18 -3.05 9.16 -4.62 9.12 C-5.43 9.12 -6.23 9.11 -7.05 9.1 C-9.04 9.07 -11.02 9.04 -13 9 C-13.33 8.01 -13.66 7.02 -14 6 C-10.12 0.1 -6.95 -1.99 0 0 Z " fill="#ED2027" transform="translate(420,547)"/>
<path d="M0 0 C0.87 0.62 1.73 1.24 2.62 1.88 C5.76 3.85 8.48 4.94 12 6 C13.67 7.67 13.17 9.66 13.19 11.94 C13.2 12.83 13.22 13.73 13.23 14.65 C13 17 13 17 11 19 C1.53 20.05 -7.28 19.21 -14.88 13.19 C-17.79 10.47 -19.58 7.77 -21 4 C-21 3.01 -21 2.02 -21 1 C-20.34 1 -19.68 1 -19 1 C-18.53 2.2 -18.05 3.39 -17.56 4.62 C-15.01 9.78 -11.04 12.43 -6 15 C-2.94 16.01 -0.09 16.16 3.12 16.19 C3.99 16.2 4.86 16.22 5.76 16.23 C8 16 8 16 10 14 C9.67 10.7 9.38 9.38 7 7 C4.68 5.96 2.35 4.96 0 4 C0 2.68 0 1.36 0 0 Z " fill="#FBCDCC" transform="translate(399,487)"/>
<path d="M0 0 C0.6 0.2 1.2 0.41 1.81 0.62 C1.48 0.84 1.48 0.84 -0.21 1.95 C-11.38 9.32 -22.33 16.99 -33.06 24.98 C-50.79 38.16 -50.79 38.16 -60.19 41.62 C-58.85 37.61 -56.41 36.85 -52.88 35 C-45.81 31.13 -39.53 26.58 -33.19 21.62 C-26.24 16.3 -19.22 11.2 -11.89 6.42 C-9.57 4.88 -7.38 3.26 -5.19 1.56 C-2.19 -0.38 -2.19 -0.38 0 0 Z " fill="#FBD5D4" transform="translate(366.1875,232.37890625)"/>
<path d="M0 0 C1.32 3.95 0.11 6.35 -1.31 10.06 C-1.58 10.76 -1.85 11.47 -2.12 12.19 C-9.16 29.88 -19.93 46.2 -33 60 C-33.66 59.34 -34.32 58.68 -35 58 C-34.7 57.67 -34.7 57.67 -33.17 56.02 C-29.06 51.53 -25.24 47.18 -22 42 C-21.5 41.33 -21 40.66 -20.49 39.98 C-12.87 29.68 -7.47 17.97 -3 6 C-1.13 1.13 -1.13 1.13 0 0 Z " fill="#FBD1D0" transform="translate(469,232)"/>
<path d="M0 0 C0.66 0 1.32 0 2 0 C2.03 0.68 2.05 1.36 2.08 2.05 C2.75 13.15 6.17 21.95 14 30 C21.49 36.05 29.56 37.28 38.94 37.62 C39.81 37.66 40.69 37.7 41.59 37.74 C43.72 37.84 45.86 37.92 48 38 C48 38.33 48 38.66 48 39 C36.51 41.55 25.33 40.49 15.25 34.31 C7.08 28.45 2.7 20.15 0.4 10.47 C-0.17 6.94 -0.06 3.58 0 0 Z " fill="#FBD1D0" transform="translate(419,467)"/>
<path d="M0 0 C1.32 0.66 2.64 1.32 4 2 C4.05 12.14 4.08 22.27 4.1 32.41 C4.11 37.11 4.13 41.82 4.15 46.52 C4.17 51.06 4.18 55.6 4.19 60.14 C4.19 61.87 4.2 63.61 4.21 65.34 C4.23 67.77 4.23 70.19 4.23 72.61 C4.23 72.97 4.23 72.97 4.25 74.8 C4.23 79.77 4.23 79.77 2 82 C-0.89 82.17 -3.67 82.23 -6.56 82.19 C-7.36 82.19 -8.15 82.19 -8.97 82.19 C-14.86 82.14 -14.86 82.14 -16 81 C-16.04 79.33 -16.04 77.67 -16 76 C-15.65 76.49 -15.3 76.98 -14.95 77.48 C-12.01 79.77 -9.53 79.33 -5.88 79.25 C-4.61 79.23 -3.35 79.22 -2.05 79.2 C1 79 1 79 2 78 C2.1 75.74 2.14 73.48 2.15 71.22 C2.15 70.51 2.15 69.8 2.16 69.07 C2.16 66.71 2.17 64.36 2.17 62 C2.17 60.37 2.17 58.74 2.18 57.11 C2.18 53.69 2.19 50.27 2.19 46.85 C2.19 42.45 2.2 38.06 2.22 33.67 C2.23 30.3 2.23 26.93 2.23 23.56 C2.23 21.94 2.23 20.32 2.24 18.7 C2.25 16.44 2.25 14.18 2.24 11.91 C2.24 10.62 2.25 9.33 2.25 8.01 C2 5 2 5 0 3 C0 2.01 0 1.02 0 0 Z " fill="#FDEBE8" transform="translate(302,423)"/>
<path d="M0 0 C4.88 0.88 4.88 0.88 6 2 C6.14 3.33 6.23 4.66 6.28 6 C6.32 6.8 6.36 7.61 6.39 8.44 C6.46 10.15 6.54 11.85 6.61 13.56 C6.64 14.37 6.68 15.17 6.72 16 C6.75 16.74 6.78 17.49 6.81 18.25 C7 20 7 20 8 21 C10.55 21.28 13.1 21.45 15.65 21.62 C18 22 18 22 20 24 C20.27 26.75 20.27 26.75 20.25 30 C20.26 31.07 20.26 32.14 20.27 33.25 C20 36 20 36 18 38 C15.65 38.38 15.65 38.38 12.94 38.56 C8.1 38.9 8.1 38.9 7 40 C6.84 43.1 6.74 46.18 6.68 49.29 C6.66 50.22 6.64 51.15 6.62 52.11 C6.56 55.09 6.5 58.08 6.44 61.06 C6.39 63.08 6.35 65.1 6.31 67.12 C6.2 72.08 6.1 77.04 6 82 C5.67 82 5.34 82 5 82 C4.95 75.91 4.91 69.83 4.89 63.74 C4.88 61.67 4.87 59.59 4.85 57.52 C4.82 54.55 4.81 51.58 4.8 48.6 C4.79 47.67 4.78 46.74 4.77 45.78 C4.77 44.92 4.77 44.06 4.77 43.17 C4.77 42.41 4.76 41.66 4.76 40.87 C5 39 5 39 7 37 C9.35 36.62 9.35 36.62 12.06 36.44 C16.9 36.1 16.9 36.1 18 35 C18.1 33.34 18.13 31.67 18.12 30 C18.13 29.09 18.13 28.19 18.13 27.25 C18 25 18 25 17 24 C14.45 23.72 11.9 23.55 9.35 23.38 C7 23 7 23 5 21 C4.72 18.16 4.53 15.4 4.44 12.56 C4.12 4.35 4.12 4.35 3 1 C2.01 0.67 1.02 0.34 0 0 Z " fill="#F79799" transform="translate(392,401)"/>
<path d="M0 0 C4.17 1.87 5.84 3.91 8 8 C8.61 12.25 8.33 14.36 6.38 18.19 C2.84 22.38 0.01 24.71 -5.5 25.5 C-10.45 24.79 -13.27 22.67 -16.81 19.25 C-18.58 15.9 -18.69 12.77 -19 9 C-18.67 9.66 -18.34 10.32 -18 11 C-17.34 11 -16.68 11 -16 11 C-15.77 12.07 -15.55 13.14 -15.31 14.25 C-13.84 18.46 -12.84 19.82 -9 22 C-5.03 22.68 -3.36 22.2 0.19 20.25 C4.6 16.72 4.6 16.72 6 14 C5.56 10.22 4.34 7.45 2.44 4.19 C2.21 3.79 2.21 3.79 1.06 1.79 C0.71 1.2 0.36 0.61 0 0 Z " fill="#FBCFCE" transform="translate(301,392)"/>
<path d="M0 0 C0.75 -0.02 1.5 -0.04 2.28 -0.06 C6.9 -0.1 9.74 0.36 13.56 3.25 C12.96 7.38 11.62 10.62 9.56 14.25 C6.79 15.64 4.28 15.56 1.19 15.75 C-2.47 15.98 -5.91 16.21 -9.44 17.25 C-9.11 16.26 -8.78 15.27 -8.44 14.25 C-7.31 14.07 -6.17 13.89 -5.01 13.7 C-3.53 13.45 -2.04 13.19 -0.56 12.94 C0.18 12.82 0.93 12.7 1.7 12.58 C3.67 12.23 5.62 11.75 7.56 11.25 C9.56 8.25 9.56 8.25 9.19 5.56 C8.98 4.8 8.77 4.04 8.56 3.25 C1.83 1.57 -4.69 2.12 -11.44 3.25 C-11.77 2.59 -12.1 1.93 -12.44 1.25 C-8.3 0.1 -4.27 0.03 0 0 Z " fill="#FBD0CF" transform="translate(357.4375,421.75)"/>
<path d="M0 0 C1.77 1.77 1.12 4.1 1.12 6.46 C1.12 7.24 1.12 8.02 1.11 8.82 C1.11 9.64 1.11 10.46 1.11 11.31 C1.11 14.03 1.11 16.75 1.1 19.47 C1.1 21.35 1.09 23.24 1.09 25.12 C1.09 30.08 1.08 35.04 1.07 40.01 C1.06 45.07 1.05 50.13 1.05 55.19 C1.04 65.13 1.02 75.06 1 85 C0.67 85 0.34 85 0 85 C-0.33 58.6 -0.66 32.2 -1 5 C-4.61 3.2 -7.08 2.53 -11 2 C-11 1.67 -11 1.34 -11 1 C-7.29 0.31 -3.78 -0.22 0 0 Z " fill="#FDE8E6" transform="translate(516,401)"/>
<path d="M0 0 C1.32 0 2.64 0 4 0 C5.24 5.54 4.91 10.76 4.56 16.38 C4.51 17.3 4.46 18.23 4.4 19.18 C4.28 21.46 4.14 23.73 4 26 C2.68 26 1.36 26 0 26 C0 17.42 0 8.84 0 0 Z " fill="#FDF1EE" transform="translate(272,547)"/>
<path d="M0 0 C-40.57 29 -40.57 29 -49 29 C-49 28.34 -49 27.68 -49 27 C-47.88 26.41 -46.75 25.82 -45.6 25.21 C-41.75 23.18 -37.9 21.13 -34.06 19.09 C-32.44 18.23 -30.81 17.38 -29.18 16.54 C-24.51 14.05 -20.47 11.14 -16.34 7.85 C-13.82 5.86 -11.28 3.91 -8.69 2 C-8.29 1.7 -8.29 1.7 -6.26 0.19 C-3.56 -1.23 -2.81 -0.87 0 0 Z " fill="#FBD4D3" transform="translate(409,317)"/>
<path d="M0 0 C0.66 0 1.32 0 2 0 C2.09 4.29 2.14 8.58 2.19 12.88 C2.21 14.1 2.24 15.32 2.26 16.58 C2.27 17.17 2.27 17.17 2.29 20.12 C2.31 21.2 2.32 22.27 2.34 23.39 C2.23 24.25 2.12 25.11 2 26 C1.01 26.66 0.02 27.32 -1 28 C-2 27 -2 27 -2.11 24.59 C-2.11 23.55 -2.1 22.51 -2.1 21.43 C-2.09 20.31 -2.09 19.18 -2.09 18.03 C-2.08 16.84 -2.07 15.66 -2.06 14.44 C-2.06 13.25 -2.05 12.06 -2.05 10.84 C-2.04 7.89 -2.02 4.95 -2 2 C-1.34 2 -0.68 2 0 2 C0 1.34 0 0.68 0 0 Z " fill="#FCDDDC" transform="translate(368,547)"/>
</svg>
